<svg xmlns="http://www.w3.org/2000/svg" width="32" height="32" fill="none" stroke="currentColor" stroke-linecap="round" stroke-linejoin="round" stroke-width="2" class="lucide lucide-chest-icon lucide-chest" color="#FFF" viewBox="-4 -4 32 32" style="color:#fff"><path fill="#2463E9" stroke="none" d="M8,-4 H16 C25.6,-4 28,-1.6000000000000014 28,8 V16 C28,25.6 25.6,28 16,28 H8 C-1.6000000000000014,28 -4,25.6 -4,16 V8 C-4,-1.6000000000000014 -1.6000000000000014,-4 8,-4 Z" data-background-path="true"/><path d="M8 19a2 2 0 0 0 2-2V9a4 4 0 0 0-8 0v8a2 2 0 0 0 2 2h16a2 2 0 0 0 2-2V9a4 4 0 0 0-4-4H6"/><path d="M2 11h20"/><path d="M16 11v3"/></svg>